<svg width="162" height="162" viewBox="0 0 162 162" fill="none" xmlns="http://www.w3.org/2000/svg">
<path d="M108.719 144.855C108.1 144.908 107.508 144.959 106.955 145.001V145.004C99.8582 145.419 93.4143 144.164 87.0419 142.143C86.7044 142.036 86.3668 141.93 86.0292 141.823C80.2881 140.009 74.5311 138.191 68.6756 136.827C61.9024 135.25 55.0536 136.103 48.2736 137.341C46.4991 137.665 44.7101 137.914 42.922 138.163C42.4866 138.223 42.0513 138.284 41.6163 138.346C30.2052 139.965 21.5671 134.931 16.1195 125.637C9.66194 114.789 7.71774 101.84 10.7047 89.5742C12.9921 79.6675 19.7452 72.9689 27.4624 67.1274C31.6797 63.9354 36.0014 60.882 40.3232 57.8287C42.3265 56.4133 44.3299 54.9979 46.3229 53.5686C52.9227 48.9816 57.8029 42.3234 60.19 34.6487C61.457 30.7094 63.2572 26.9621 65.5405 23.5112C67.2159 21.1281 69.4317 19.1756 72.0065 17.814C88.7431 8.74011 102.798 16.199 110.008 30.3174C110.321 30.9143 110.585 31.5355 110.796 32.175C114.175 42.7656 122.048 48.5826 132.027 52.1157C133.522 52.6448 135.042 53.1006 136.562 53.5563C137.942 53.9699 139.322 54.3835 140.682 54.8518C145.765 56.6023 149.345 59.9333 150.975 65.1465C151.609 67.1753 152.197 69.2277 152.641 71.3043C153.131 73.3326 153.132 75.4479 152.643 77.4766C152.154 79.5053 151.19 81.3885 149.829 82.9708C146.776 86.6805 143.795 90.4482 140.814 94.2154L140.772 94.2691C135.524 100.906 133.439 108.555 135.127 116.736C137.81 129.736 128.159 143.827 112.947 144.549C111.495 144.618 110.045 144.742 108.719 144.855Z" fill="#FFFEF3"/>
<path d="M86.491 57.8192C95.7506 58.3023 105.903 64.9529 105.868 75.9794H105.871C105.911 83.8884 101.22 90.6441 93.6313 93.0312C86.3151 95.333 79.226 94.607 72.6882 90.3755C66.0133 86.0555 63.5448 78.1934 66.7608 70.9327C70.5282 62.4306 77.314 57.3394 86.491 57.8192Z" fill="#FFEC71"/>
<path d="M0.506583 102.733C0.251268 88.1133 4.35274 77.7957 12.7847 69.1449C20.8144 60.9078 30.412 54.8646 40.5564 49.7714C44.7836 47.6737 48.2347 44.2866 50.4113 40.0993C51.5855 37.9532 52.2864 35.5437 53.1561 33.2367C53.6306 31.9779 54.0204 30.6862 54.4326 29.4044C58.4953 16.76 67.5355 9.88613 80.2324 7.56992C95.5986 4.7667 109.858 12.4605 117.184 27.2117C117.455 27.7038 117.692 28.214 117.892 28.7388C120.868 37.7011 127.613 42.419 136.213 45.0568C137.821 45.5504 139.419 46.0795 141.038 46.5317C151.878 49.56 157.957 56.9063 160.425 67.6598C162.384 76.1922 161.1 83.8714 155.243 90.6665C152.684 93.6351 150.512 96.9371 148.193 100.108C144.795 104.755 143.649 110.004 143.927 115.688C144.091 119.047 144.357 122.465 143.941 125.776C142.516 137.113 133.126 151.311 116.101 153.959C104.311 155.797 92.8898 155.009 81.6369 150.911C77.1968 149.368 72.6615 148.113 68.0599 147.154C61.0984 145.598 54.2318 147.089 47.333 148.099C43.2545 148.695 38.9785 149.312 34.9637 148.73C20.6437 146.652 10.9457 138.243 5.38777 125.128C2.03258 117.216 0.46786 108.819 0.506583 102.733ZM106.955 145.001C108.692 144.87 110.817 144.65 112.947 144.549C128.159 143.827 137.81 129.736 135.127 116.736C133.439 108.555 135.524 100.906 140.772 94.2691C143.767 90.484 146.762 86.6981 149.829 82.9708C151.19 81.3884 152.154 79.5053 152.643 77.4766C153.132 75.4479 153.131 73.3326 152.641 71.3043C152.197 69.2277 151.609 67.1752 150.975 65.1465C149.345 59.9332 145.765 56.6023 140.682 54.8518C137.823 53.8673 134.878 53.1251 132.027 52.1157C122.048 48.5826 114.175 42.7655 110.796 32.1749C110.585 31.5354 110.321 30.9143 110.008 30.3174C102.798 16.199 88.7431 8.74011 72.0065 17.8139C69.4317 19.1755 67.2159 21.1281 65.5405 23.5112C63.2572 26.9621 61.457 30.7094 60.19 34.6486C57.8029 42.3233 52.9227 48.9815 46.3229 53.5686C40.0306 58.081 33.6346 62.4556 27.4624 67.1274C19.7452 72.9689 12.9921 79.6675 10.7047 89.5742C7.71774 101.84 9.66194 114.789 16.1195 125.637C21.5671 134.931 30.2052 139.965 41.6163 138.346C43.838 138.031 46.067 137.744 48.2736 137.341C55.0536 136.103 61.9024 135.25 68.6756 136.827C74.8754 138.271 80.9649 140.225 87.0419 142.143C93.4143 144.164 99.8582 145.419 106.955 145.004V145.001Z" fill="black"/>
<path d="M85.1245 102.974C77.7604 102.869 70.6739 100.143 65.139 95.2837C55.8998 87.3677 54.6705 73.7729 62.2078 63.6855C65.3082 59.5307 69.4203 56.2386 74.1531 54.1227C77.5004 52.5915 80.6266 50.7097 84.4084 50.2056C94.516 48.8641 106.568 54.9852 111.849 64.3341C116.765 73.0384 115.53 85.3487 108.622 93.3251C102.75 100.106 94.9577 102.815 85.1245 102.974ZM105.868 75.9794C105.903 64.9528 95.7506 58.3022 86.491 57.8191C77.314 57.3393 70.5282 62.4305 66.7608 70.9327C63.5448 78.1933 66.0133 86.0555 72.6882 90.3755C79.226 94.607 86.3151 95.333 93.6313 93.0312C101.22 90.6441 105.911 83.8883 105.871 75.9794H105.868Z" fill="black"/>
</svg>
